# This file uses centimeters as units for non-parametric coordinates.

mtllib light.mtl
g default
v 9.510571 3.090172 -10.000000
v 8.090175 5.877856 -10.000000
v 5.877856 8.090175 -10.000000
v 3.090172 9.510570 -10.000000
v 0.000000 10.000005 -10.000000
v -3.090172 9.510570 -10.000000
v -5.877855 8.090173 -10.000000
v -8.090172 5.877854 -10.000000
v -9.510568 3.090171 -10.000000
v -10.000002 0.000000 -10.000000
v -9.510568 -3.090171 -10.000000
v -8.090172 -5.877854 -10.000000
v -5.877854 -8.090171 -10.000000
v -3.090167 -9.510567 -10.000000
v 0.000003 -10.000001 -10.000000
v 3.090170 -9.510566 -10.000000
v 5.877852 -8.090171 -10.000000
v 8.090170 -5.877853 -10.000000
v 9.510565 -3.090170 -10.000000
v 10.000000 0.000000 -10.000000
v 0.000000 0.000000 10.000000
v 0.000002 0.000000 -2.271692
vt 0.712178 0.001811
vt 0.775008 0.001811
vt 0.642531 0.452580
vt 0.824871 0.001811
vt 0.642531 0.001811
vt 0.572883 0.001811
vt 0.510053 0.001811
vt 0.460191 0.001811
vt 0.677055 0.907341
vt 0.614225 0.907341
vt 0.544577 0.456572
vt 0.544577 0.907341
vt 0.726917 0.907341
vt 0.474930 0.907341
vt 0.412100 0.907341
vt 0.362237 0.907341
vt 0.998008 0.907341
vt 0.935178 0.907341
vt 0.865530 0.456572
vt 0.865530 0.907341
vt 0.795883 0.907341
vt 0.733052 0.907341
vt 0.091147 0.456572
vt 0.153977 0.456572
vt 0.223624 0.907341
vt 0.223624 0.456572
vt 0.293272 0.456572
vt 0.356102 0.456572
vt 0.094899 0.044856
vt 0.227377 0.227196
vt 0.045037 0.094718
vt 0.157729 0.012842
vt 0.013023 0.157548
vt 0.227377 0.001811
vt 0.001992 0.227196
vt 0.297024 0.012842
vt 0.013023 0.296843
vt 0.359854 0.044856
vt 0.045037 0.359673
vt 0.409717 0.094718
vt 0.094899 0.409536
vt 0.441730 0.157548
vt 0.157729 0.441549
vt 0.452761 0.227196
vt 0.227377 0.452580
vt 0.441730 0.296843
vt 0.359854 0.409536
vt 0.297024 0.441549
vt 0.409716 0.359673
vn 0.581570 -0.188963 -0.791245
vn -0.021471 0.066080 -0.997583
vn 0.611499 0.000000 -0.791245
vn 0.850651 0.276392 0.447214
vn 0.723607 0.525731 0.447214
vn 0.000000 0.000001 1.000000
vn 0.723607 0.525731 0.447214
vn 0.525731 0.723607 0.447214
vn 0.000000 0.000001 1.000000
vn 0.525731 0.723607 0.447214
vn 0.276393 0.850651 0.447214
vn 0.000000 0.000001 1.000000
vn 0.276393 0.850651 0.447214
vn 0.000000 0.894427 0.447214
vn 0.000000 0.000001 1.000000
vn 0.000000 0.894427 0.447214
vn -0.276393 0.850651 0.447214
vn 0.000000 0.000001 1.000000
vn -0.276393 0.850651 0.447214
vn -0.525731 0.723607 0.447214
vn 0.000000 0.000001 1.000000
vn -0.525731 0.723607 0.447214
vn -0.723607 0.525731 0.447214
vn 0.000000 0.000001 1.000000
vn -0.723607 0.525731 0.447214
vn -0.850651 0.276393 0.447214
vn 0.000000 0.000001 1.000000
vn -0.850651 0.276393 0.447214
vn -0.894427 0.000000 0.447214
vn 0.000000 0.000001 1.000000
vn -0.894427 0.000000 0.447214
vn -0.850651 -0.276393 0.447214
vn 0.000000 0.000001 1.000000
vn -0.850651 -0.276393 0.447214
vn -0.723607 -0.525731 0.447214
vn 0.000000 0.000001 1.000000
vn -0.723607 -0.525731 0.447214
vn -0.525731 -0.723607 0.447214
vn 0.000000 0.000001 1.000000
vn -0.525731 -0.723607 0.447214
vn -0.276393 -0.850651 0.447214
vn 0.000000 0.000001 1.000000
vn -0.276393 -0.850651 0.447214
vn 0.000000 -0.894427 0.447214
vn 0.000000 0.000001 1.000000
vn 0.000000 -0.894427 0.447214
vn 0.276393 -0.850651 0.447214
vn 0.000000 0.000001 1.000000
vn 0.276393 -0.850651 0.447214
vn 0.525731 -0.723607 0.447214
vn 0.000000 0.000001 1.000000
vn 0.525731 -0.723607 0.447214
vn 0.723607 -0.525731 0.447214
vn 0.000000 0.000001 1.000000
vn 0.723607 -0.525731 0.447214
vn 0.850651 -0.276393 0.447214
vn 0.000000 0.000001 1.000000
vn 0.850651 -0.276393 0.447214
vn 0.894427 -0.000001 0.447214
vn 0.000000 0.000001 1.000000
vn 0.894427 -0.000001 0.447214
vn 0.850651 0.276392 0.447214
vn 0.000000 0.000001 1.000000
vn 0.188963 0.581570 -0.791245
vn -0.021471 0.066080 -0.997583
vn -0.094413 0.596102 -0.797339
vn -0.359430 -0.494713 -0.791245
vn -0.021471 0.066080 -0.997583
vn -0.188963 -0.581570 -0.791245
vn -0.494713 0.359430 -0.791245
vn -0.021471 0.066080 -0.997583
vn -0.581570 0.188963 -0.791245
vn 0.359430 -0.494713 -0.791245
vn -0.021471 0.066080 -0.997583
vn 0.494713 -0.359430 -0.791245
vn -0.188963 -0.581570 -0.791245
vn -0.021471 0.066080 -0.997583
vn 0.000000 -0.611499 -0.791245
vn -0.581570 -0.188963 -0.791245
vn -0.021471 0.066080 -0.997583
vn -0.494713 -0.359430 -0.791246
vn -0.494713 -0.359430 -0.791246
vn -0.021471 0.066080 -0.997583
vn -0.359430 -0.494713 -0.791245
vn -0.581570 -0.188963 -0.791245
vn -0.611499 0.000001 -0.791245
vn -0.021471 0.066080 -0.997583
vn -0.581570 0.188963 -0.791245
vn -0.021471 0.066080 -0.997583
vn -0.611499 0.000001 -0.791245
vn -0.094413 0.596102 -0.797339
vn -0.021471 0.066080 -0.997583
vn -0.273998 0.537751 -0.797339
vn -0.188964 0.581570 -0.791245
vn -0.273998 0.537751 -0.797339
vn -0.021471 0.066080 -0.997583
vn -0.494713 0.359430 -0.791245
vn 0.359430 0.494713 -0.791245
vn -0.021471 0.066080 -0.997583
vn 0.188963 0.581570 -0.791245
vn 0.494713 0.359430 -0.791245
vn -0.021471 0.066080 -0.997583
vn 0.359430 0.494713 -0.791245
vn 0.581570 0.188964 -0.791245
vn -0.021471 0.066080 -0.997583
vn 0.494713 0.359430 -0.791245
vn 0.611499 0.000000 -0.791245
vn -0.021471 0.066080 -0.997583
vn 0.581570 0.188964 -0.791245
vn 0.494713 -0.359430 -0.791245
vn -0.021471 0.066080 -0.997583
vn 0.581570 -0.188963 -0.791245
vn 0.188964 -0.581570 -0.791246
vn -0.021471 0.066080 -0.997583
vn 0.359430 -0.494713 -0.791245
vn 0.000000 -0.611499 -0.791245
vn -0.021471 0.066080 -0.997583
vn 0.188964 -0.581570 -0.791246
s off
g light:pCone1
usemtl lambert2SG
f 9/33/1 22/30/2 10/35/3
f 1/1/4 2/2/5 21/3/6
f 2/2/7 3/4/8 21/3/9
f 3/17/10 4/18/11 21/19/12
f 4/18/13 5/20/14 21/19/15
f 5/20/16 6/21/17 21/19/18
f 6/21/19 7/22/20 21/19/21
f 7/13/22 8/9/23 21/11/24
f 8/9/25 9/10/26 21/11/27
f 9/10/28 10/12/29 21/11/30
f 10/12/31 11/14/32 21/11/33
f 11/14/34 12/15/35 21/11/36
f 12/15/37 13/16/38 21/11/39
f 13/23/40 14/24/41 21/25/42
f 14/24/43 15/26/44 21/25/45
f 15/26/46 16/27/47 21/25/48
f 16/27/49 17/28/50 21/25/51
f 17/8/52 18/7/53 21/3/54
f 18/7/55 19/6/56 21/3/57
f 19/6/58 20/5/59 21/3/60
f 20/5/61 1/1/62 21/3/63
f 14/43/64 22/30/65 15/45/66
f 3/38/67 22/30/68 4/36/69
f 18/49/70 22/30/71 19/46/72
f 7/29/73 22/30/74 8/31/75
f 4/36/76 22/30/77 5/34/78
f 1/42/79 22/30/80 2/40/81
f 2/40/82 22/30/83 3/38/84
f 1/42/85 20/44/86 22/30/87
f 19/46/88 22/30/89 20/44/90
f 15/45/91 22/30/92 17/47/93 16/48/94
f 17/47/95 22/30/96 18/49/97
f 13/41/98 22/30/99 14/43/100
f 12/39/101 22/30/102 13/41/103
f 11/37/104 22/30/105 12/39/106
f 10/35/107 22/30/108 11/37/109
f 8/31/110 22/30/111 9/33/112
f 6/32/113 22/30/114 7/29/115
f 5/34/116 22/30/117 6/32/118
